<?xml version="1.0" encoding="UTF-8" ?>
<svg version="1.1" width="16" height="16" xmlns="http://www.w3.org/2000/svg" shape-rendering="crispEdges">
<rect x="5" y="1" width="1" height="1" fill="#FFFFFF" opacity="0.023529" />
<rect x="6" y="1" width="1" height="1" fill="#FFFFFF" opacity="0.803922" />
<rect x="7" y="1" width="1" height="1" fill="#FFFFFF" opacity="0.980392" />
<rect x="8" y="1" width="1" height="1" fill="#FFFFFF" opacity="0.415686" />
<rect x="4" y="2" width="1" height="1" fill="#FFFFFF" opacity="0.003922" />
<rect x="5" y="2" width="1" height="1" fill="#FFFFFF" opacity="0.400000" />
<rect x="6" y="2" width="1" height="1" fill="#FFFFFF" />
<rect x="7" y="2" width="1" height="1" fill="#FFFFFF" />
<rect x="8" y="2" width="1" height="1" fill="#FFFFFF" opacity="0.854902" />
<rect x="9" y="2" width="1" height="1" fill="#FFFFFF" opacity="0.117647" />
<rect x="1" y="3" width="1" height="1" fill="#FFFFFF" opacity="0.043137" />
<rect x="2" y="3" width="1" height="1" fill="#FFFFFF" opacity="0.388235" />
<rect x="3" y="3" width="1" height="1" fill="#FFFFFF" opacity="0.286275" />
<rect x="4" y="3" width="1" height="1" fill="#FFFFFF" opacity="0.792157" />
<rect x="5" y="3" width="1" height="1" fill="#FFFFFF" />
<rect x="6" y="3" width="1" height="1" fill="#FFFFFF" />
<rect x="7" y="3" width="1" height="1" fill="#FFFFFF" />
<rect x="8" y="3" width="1" height="1" fill="#FFFFFF" />
<rect x="9" y="3" width="1" height="1" fill="#FFFFFF" opacity="0.984314" />
<rect x="10" y="3" width="1" height="1" fill="#FFFFFF" opacity="0.501961" />
<rect x="11" y="3" width="1" height="1" fill="#FFFFFF" opacity="0.329412" />
<rect x="12" y="3" width="1" height="1" fill="#FFFFFF" opacity="0.258824" />
<rect x="1" y="4" width="1" height="1" fill="#FFFFFF" opacity="0.603922" />
<rect x="2" y="4" width="1" height="1" fill="#FFFFFF" />
<rect x="3" y="4" width="1" height="1" fill="#FFFFFF" />
<rect x="4" y="4" width="1" height="1" fill="#FFFFFF" />
<rect x="5" y="4" width="1" height="1" fill="#FFFFFF" />
<rect x="6" y="4" width="1" height="1" fill="#FFFFFF" />
<rect x="7" y="4" width="1" height="1" fill="#FFFFFF" />
<rect x="8" y="4" width="1" height="1" fill="#FFFFFF" />
<rect x="9" y="4" width="1" height="1" fill="#FFFFFF" />
<rect x="10" y="4" width="1" height="1" fill="#FFFFFF" />
<rect x="11" y="4" width="1" height="1" fill="#FFFFFF" />
<rect x="12" y="4" width="1" height="1" fill="#FFFFFF" opacity="0.992157" />
<rect x="13" y="4" width="1" height="1" fill="#FFFFFF" opacity="0.184314" />
<rect x="1" y="5" width="1" height="1" fill="#FFFFFF" opacity="0.725490" />
<rect x="2" y="5" width="1" height="1" fill="#FFFFFF" />
<rect x="3" y="5" width="1" height="1" fill="#FFFFFF" />
<rect x="4" y="5" width="1" height="1" fill="#FFFFFF" />
<rect x="5" y="5" width="1" height="1" fill="#FFFFFF" opacity="0.921569" />
<rect x="6" y="5" width="1" height="1" fill="#FFFFFF" opacity="0.450980" />
<rect x="7" y="5" width="1" height="1" fill="#FFFFFF" opacity="0.329412" />
<rect x="8" y="5" width="1" height="1" fill="#FFFFFF" opacity="0.647059" />
<rect x="9" y="5" width="1" height="1" fill="#FFFFFF" />
<rect x="10" y="5" width="1" height="1" fill="#FFFFFF" />
<rect x="11" y="5" width="1" height="1" fill="#FFFFFF" />
<rect x="12" y="5" width="1" height="1" fill="#FFFFFF" />
<rect x="13" y="5" width="1" height="1" fill="#FFFFFF" opacity="0.294118" />
<rect x="1" y="6" width="1" height="1" fill="#FFFFFF" opacity="0.109804" />
<rect x="2" y="6" width="1" height="1" fill="#FFFFFF" opacity="0.976471" />
<rect x="3" y="6" width="1" height="1" fill="#FFFFFF" />
<rect x="4" y="6" width="1" height="1" fill="#FFFFFF" opacity="0.996078" />
<rect x="5" y="6" width="1" height="1" fill="#FFFFFF" opacity="0.207843" />
<rect x="9" y="6" width="1" height="1" fill="#FFFFFF" opacity="0.639216" />
<rect x="10" y="6" width="1" height="1" fill="#FFFFFF" />
<rect x="11" y="6" width="1" height="1" fill="#FFFFFF" />
<rect x="12" y="6" width="1" height="1" fill="#FFFFFF" opacity="0.658824" />
<rect x="1" y="7" width="1" height="1" fill="#FFFFFF" opacity="0.031373" />
<rect x="2" y="7" width="1" height="1" fill="#FFFFFF" />
<rect x="3" y="7" width="1" height="1" fill="#FFFFFF" />
<rect x="4" y="7" width="1" height="1" fill="#FFFFFF" opacity="0.878431" />
<rect x="9" y="7" width="1" height="1" fill="#FFFFFF" opacity="0.309804" />
<rect x="10" y="7" width="1" height="1" fill="#FFFFFF" />
<rect x="11" y="7" width="1" height="1" fill="#FFFFFF" />
<rect x="12" y="7" width="1" height="1" fill="#FFFFFF" opacity="0.603922" />
<rect x="1" y="8" width="1" height="1" fill="#FFFFFF" opacity="0.003922" />
<rect x="2" y="8" width="1" height="1" fill="#FFFFFF" opacity="0.976471" />
<rect x="3" y="8" width="1" height="1" fill="#FFFFFF" />
<rect x="4" y="8" width="1" height="1" fill="#FFFFFF" opacity="0.956863" />
<rect x="5" y="8" width="1" height="1" fill="#FFFFFF" opacity="0.035294" />
<rect x="9" y="8" width="1" height="1" fill="#FFFFFF" opacity="0.427451" />
<rect x="10" y="8" width="1" height="1" fill="#FFFFFF" />
<rect x="11" y="8" width="1" height="1" fill="#FFFFFF" opacity="0.592157" />
<rect x="12" y="8" width="1" height="1" fill="#FFFFFF" opacity="0.243137" />
<rect x="1" y="9" width="1" height="1" fill="#FFFFFF" opacity="0.454902" />
<rect x="2" y="9" width="1" height="1" fill="#FFFFFF" />
<rect x="3" y="9" width="1" height="1" fill="#FFFFFF" />
<rect x="4" y="9" width="1" height="1" fill="#FFFFFF" />
<rect x="5" y="9" width="1" height="1" fill="#FFFFFF" opacity="0.627451" />
<rect x="6" y="9" width="1" height="1" fill="#FFFFFF" opacity="0.031373" />
<rect x="8" y="9" width="1" height="1" fill="#FFFFFF" opacity="0.184314" />
<rect x="9" y="9" width="1" height="1" fill="#FFFFFF" opacity="0.909804" />
<rect x="10" y="9" width="1" height="1" fill="#FFFFFF" opacity="0.850980" />
<rect x="11" y="9" width="1" height="1" fill="#FFFFFF" opacity="0.094118" />
<rect x="12" y="9" width="1" height="1" fill="#FFFFFF" opacity="0.129412" />
<rect x="1" y="10" width="1" height="1" fill="#FFFFFF" opacity="0.768627" />
<rect x="2" y="10" width="1" height="1" fill="#FFFFFF" />
<rect x="3" y="10" width="1" height="1" fill="#FFFFFF" />
<rect x="4" y="10" width="1" height="1" fill="#FFFFFF" />
<rect x="5" y="10" width="1" height="1" fill="#FFFFFF" />
<rect x="6" y="10" width="1" height="1" fill="#FFFFFF" opacity="0.949020" />
<rect x="7" y="10" width="1" height="1" fill="#FFFFFF" opacity="0.854902" />
<rect x="8" y="10" width="1" height="1" fill="#FFFFFF" opacity="0.992157" />
<rect x="9" y="10" width="1" height="1" fill="#FFFFFF" opacity="0.909804" />
<rect x="10" y="10" width="1" height="1" fill="#FFFFFF" opacity="0.250980" />
<rect x="11" y="10" width="1" height="1" fill="#FFFFFF" opacity="0.545098" />
<rect x="12" y="10" width="1" height="1" fill="#FFFFFF" opacity="0.615686" />
<rect x="1" y="11" width="1" height="1" fill="#FFFFFF" opacity="0.258824" />
<rect x="2" y="11" width="1" height="1" fill="#FFFFFF" opacity="0.854902" />
<rect x="3" y="11" width="1" height="1" fill="#FFFFFF" opacity="0.752941" />
<rect x="4" y="11" width="1" height="1" fill="#FFFFFF" opacity="0.996078" />
<rect x="5" y="11" width="1" height="1" fill="#FFFFFF" />
<rect x="6" y="11" width="1" height="1" fill="#FFFFFF" />
<rect x="7" y="11" width="1" height="1" fill="#FFFFFF" />
<rect x="8" y="11" width="1" height="1" fill="#FFFFFF" opacity="0.564706" />
<rect x="9" y="11" width="1" height="1" fill="#FFFFFF" opacity="0.062745" />
<rect x="10" y="11" width="1" height="1" fill="#FFFFFF" opacity="0.494118" />
<rect x="11" y="11" width="1" height="1" fill="#FFFFFF" opacity="0.984314" />
<rect x="12" y="11" width="1" height="1" fill="#FFFFFF" opacity="0.996078" />
<rect x="13" y="11" width="1" height="1" fill="#FFFFFF" opacity="0.537255" />
<rect x="14" y="11" width="1" height="1" fill="#FFFFFF" opacity="0.050980" />
<rect x="4" y="12" width="1" height="1" fill="#FFFFFF" opacity="0.266667" />
<rect x="5" y="12" width="1" height="1" fill="#FFFFFF" opacity="0.780392" />
<rect x="6" y="12" width="1" height="1" fill="#FFFFFF" />
<rect x="7" y="12" width="1" height="1" fill="#FFFFFF" />
<rect x="8" y="12" width="1" height="1" fill="#FFFFFF" opacity="0.341176" />
<rect x="9" y="12" width="1" height="1" fill="#FFFFFF" opacity="0.266667" />
<rect x="10" y="12" width="1" height="1" fill="#FFFFFF" opacity="0.815686" />
<rect x="11" y="12" width="1" height="1" fill="#FFFFFF" />
<rect x="12" y="12" width="1" height="1" fill="#FFFFFF" />
<rect x="13" y="12" width="1" height="1" fill="#FFFFFF" opacity="0.843137" />
<rect x="14" y="12" width="1" height="1" fill="#FFFFFF" opacity="0.301961" />
<rect x="5" y="13" width="1" height="1" fill="#FFFFFF" opacity="0.113725" />
<rect x="6" y="13" width="1" height="1" fill="#FFFFFF" opacity="0.988235" />
<rect x="7" y="13" width="1" height="1" fill="#FFFFFF" />
<rect x="8" y="13" width="1" height="1" fill="#FFFFFF" opacity="0.658824" />
<rect x="10" y="13" width="1" height="1" fill="#FFFFFF" opacity="0.015686" />
<rect x="11" y="13" width="1" height="1" fill="#FFFFFF" opacity="0.752941" />
<rect x="12" y="13" width="1" height="1" fill="#FFFFFF" opacity="0.811765" />
<rect x="13" y="13" width="1" height="1" fill="#FFFFFF" opacity="0.027451" />
<rect x="6" y="14" width="1" height="1" fill="#FFFFFF" opacity="0.282353" />
<rect x="7" y="14" width="1" height="1" fill="#FFFFFF" opacity="0.447059" />
<rect x="8" y="14" width="1" height="1" fill="#FFFFFF" opacity="0.101961" />
<rect x="11" y="14" width="1" height="1" fill="#FFFFFF" opacity="0.203922" />
<rect x="12" y="14" width="1" height="1" fill="#FFFFFF" opacity="0.266667" />
</svg>